<svg xmlns="http://www.w3.org/2000/svg" viewBox="0 0 64 64" width="64" height="64">
  <!-- Person 1 (mentor) -->
  <circle cx="20" cy="18" r="8" fill="#D4A574"/>
  <path d="M8 45 Q8 30 20 30 Q32 30 32 45" fill="#1B4332"/>

  <!-- Person 2 (child) -->
  <circle cx="44" cy="22" r="6" fill="#D4A574"/>
  <path d="M34 45 Q34 34 44 34 Q54 34 54 45" fill="#D4A574"/>

  <!-- Book between them -->
  <rect x="24" y="38" width="16" height="12" rx="1" fill="#FDF6E3" stroke="#1B4332" stroke-width="1.5"/>
  <line x1="32" y1="38" x2="32" y2="50" stroke="#1B4332" stroke-width="1"/>
  <line x1="26" y1="42" x2="30" y2="42" stroke="#D4A574" stroke-width="0.5"/>
  <line x1="26" y1="45" x2="30" y2="45" stroke="#D4A574" stroke-width="0.5"/>
  <line x1="34" y1="42" x2="38" y2="42" stroke="#D4A574" stroke-width="0.5"/>
  <line x1="34" y1="45" x2="38" y2="45" stroke="#D4A574" stroke-width="0.5"/>

  <!-- Reading together indicator -->
  <path d="M20 12 Q25 8 30 12" fill="none" stroke="#D4A574" stroke-width="1.5" stroke-linecap="round"/>
  <path d="M34 16 Q39 12 44 16" fill="none" stroke="#D4A574" stroke-width="1.5" stroke-linecap="round"/>
</svg>
